<svg xmlns="http://www.w3.org/2000/svg" viewBox="0 0 1200 400" width="1200" height="400">
  <defs>
    <radialGradient id="head3d" cx="45%" cy="35%" r="55%">
      <stop offset="0%" stop-color="#FFEC80"/><stop offset="50%" stop-color="#FFB800"/><stop offset="100%" stop-color="#CC6600"/>
    </radialGradient>
    <radialGradient id="thorax3d" cx="45%" cy="35%" r="55%">
      <stop offset="0%" stop-color="#FFEC80"/><stop offset="40%" stop-color="#FFAA00"/><stop offset="100%" stop-color="#CC5500"/>
    </radialGradient>
    <radialGradient id="abdomen3d" cx="45%" cy="30%" r="60%">
      <stop offset="0%" stop-color="#FFEC80"/><stop offset="35%" stop-color="#FF9900"/><stop offset="70%" stop-color="#E65100"/><stop offset="100%" stop-color="#8B3000"/>
    </radialGradient>
    <linearGradient id="wingGL" x1="0%" y1="0%" x2="100%" y2="100%">
      <stop offset="0%" stop-color="#FFD23F" stop-opacity="0.5"/><stop offset="100%" stop-color="#FF6B00" stop-opacity="0.05"/>
    </linearGradient>
    <linearGradient id="wingGR" x1="100%" y1="0%" x2="0%" y2="100%">
      <stop offset="0%" stop-color="#FFD23F" stop-opacity="0.5"/><stop offset="100%" stop-color="#FF6B00" stop-opacity="0.05"/>
    </linearGradient>
    <radialGradient id="wingHL" cx="30%" cy="30%" r="60%">
      <stop offset="0%" stop-color="#FFFFFF" stop-opacity="0.2"/><stop offset="100%" stop-color="#FFFFFF" stop-opacity="0"/>
    </radialGradient>
    <radialGradient id="bgHalo" cx="50%" cy="48%" r="45%">
      <stop offset="0%" stop-color="#FFD23F" stop-opacity="0.06"/><stop offset="100%" stop-color="#000000" stop-opacity="0"/>
    </radialGradient>
    <radialGradient id="shadow" cx="50%" cy="50%" r="50%">
      <stop offset="0%" stop-color="#000000" stop-opacity="0.3"/><stop offset="100%" stop-color="#000000" stop-opacity="0"/>
    </radialGradient>
    <linearGradient id="tg" x1="0%" y1="0%" x2="100%" y2="0%">
      <stop offset="0%" stop-color="#FFD23F"/><stop offset="50%" stop-color="#FFC107"/><stop offset="100%" stop-color="#FF8C00"/>
    </linearGradient>
    <filter id="glow"><feGaussianBlur stdDeviation="5" result="b"/><feMerge><feMergeNode in="b"/><feMergeNode in="SourceGraphic"/></feMerge></filter>
    <filter id="ss"><feGaussianBlur stdDeviation="6" result="b"/><feMerge><feMergeNode in="b"/><feMergeNode in="SourceGraphic"/></feMerge></filter>
  </defs>

  <rect width="1200" height="400" rx="40" fill="#060912"/>

  <!-- 光晕 -->
  <ellipse cx="180" cy="210" rx="160" ry="130" fill="url(#bgHalo)"/>
  <!-- 投影 -->
  <ellipse cx="180" cy="370" rx="65" ry="10" fill="url(#shadow)" opacity="0.4"/>

  <!-- ═══ 图标 ═══ -->
  <g transform="translate(-10, 15) scale(0.62)">
    <!-- 翅膀 -->
    <path d="M242,215 C195,188 130,195 95,240 C60,285 75,350 125,380 C175,410 228,370 240,330 Q248,300 242,265 Z"
          fill="url(#wingGL)" stroke="#FFD23F" stroke-width="1.5" opacity="0.5"/>
    <path d="M242,215 C195,188 130,195 95,240 C60,285 75,350 125,380 C175,410 228,370 240,330 Q248,300 242,265 Z"
          fill="url(#wingHL)"/>
    <g stroke="#FFD23F" stroke-width="0.6" fill="none" opacity="0.18">
      <path d="M238,225 C200,210 145,218 115,255"/><path d="M236,248 C195,238 140,250 110,285"/>
      <path d="M234,270 C200,262 155,272 130,300"/><path d="M232,292 C210,286 170,295 150,320"/>
    </g>
    <path d="M270,215 C317,188 382,195 417,240 C452,285 437,350 387,380 C337,410 284,370 272,330 Q264,300 270,265 Z"
          fill="url(#wingGR)" stroke="#FFD23F" stroke-width="1.5" opacity="0.5"/>
    <path d="M270,215 C317,188 382,195 417,240 C452,285 437,350 387,380 C337,410 284,370 272,330 Q264,300 270,265 Z"
          fill="url(#wingHL)"/>
    <g stroke="#FFD23F" stroke-width="0.6" fill="none" opacity="0.18">
      <path d="M274,225 C312,210 367,218 397,255"/><path d="M276,248 C317,238 372,250 402,285"/>
      <path d="M278,270 C312,262 357,272 382,300"/><path d="M280,292 C302,286 342,295 362,320"/>
    </g>

    <!-- 身体 -->
    <ellipse cx="256" cy="340" rx="32" ry="42" fill="url(#abdomen3d)"/>
    <g fill="none" stroke="#060912" stroke-width="2.5" opacity="0.4" stroke-linecap="round">
      <path d="M232,322 Q256,316 280,322"/><path d="M230,337 Q256,330 282,337"/>
      <path d="M232,352 Q256,346 280,352"/><path d="M236,366 Q256,361 276,366"/>
    </g>
    <ellipse cx="248" cy="325" rx="14" ry="18" fill="#FFFFFF" opacity="0.1"/>
    <ellipse cx="256" cy="268" rx="26" ry="30" fill="url(#thorax3d)"/>
    <ellipse cx="248" cy="255" rx="12" ry="14" fill="#FFFFFF" opacity="0.12"/>
    <ellipse cx="256" cy="230" rx="16" ry="16" fill="url(#head3d)"/>
    <ellipse cx="250" cy="224" rx="7" ry="8" fill="#FFFFFF" opacity="0.15"/>
    <ellipse cx="256" cy="248" rx="18" ry="4" fill="#000000" opacity="0.12"/>
    <ellipse cx="256" cy="298" rx="22" ry="4" fill="#000000" opacity="0.1"/>

    <!-- 触角 -->
    <path d="M248,220 C238,195 220,170 208,155 C200,145 192,143 186,148" stroke="#FFD23F" stroke-width="2.5" fill="none" stroke-linecap="round" opacity="0.85"/>
    <path d="M264,220 C274,195 292,170 304,155 C312,145 320,143 326,148" stroke="#FFD23F" stroke-width="2.5" fill="none" stroke-linecap="round" opacity="0.85"/>
    <circle cx="186" cy="148" r="6" fill="#FFD23F" filter="url(#glow)" opacity="0.9"/>
    <circle cx="183" cy="145" r="2.5" fill="#FFEC80" opacity="0.5"/>
    <circle cx="326" cy="148" r="6" fill="#FFD23F" filter="url(#glow)" opacity="0.9"/>
    <circle cx="323" cy="145" r="2.5" fill="#FFEC80" opacity="0.5"/>

    <!-- 科技点缀 -->
    <g filter="url(#glow)">
      <circle cx="186" cy="148" r="2" fill="#58A6FF" opacity="0.45"/>
      <circle cx="326" cy="148" r="2" fill="#58A6FF" opacity="0.45"/>
      <circle cx="95" cy="240" r="1.5" fill="#58A6FF" opacity="0.3"/>
      <circle cx="417" cy="240" r="1.5" fill="#58A6FF" opacity="0.3"/>
    </g>
  </g>

  <!-- ═══ 文字 ═══ -->
  <text x="410" y="195" font-family="'SF Pro Display','Segoe UI','Helvetica Neue',Arial,sans-serif"
        font-size="118" font-weight="700" fill="url(#tg)" letter-spacing="2">CoApis</text>
  <line x1="410" y1="222" x2="810" y2="222" stroke="#FFD23F" stroke-width="1.2" opacity="0.22"/>
  <text x="410" y="262" font-family="'SF Pro Display','Segoe UI','Helvetica Neue',Arial,sans-serif"
        font-size="23" fill="#8B949E" letter-spacing="9" font-weight="300">INTELLIGENT AGENT PLATFORM</text>
  <text x="410" y="302" font-family="'SF Mono','Fira Code',monospace"
        font-size="12" fill="#FFD23F" opacity="0.35" letter-spacing="5">Co-evolution · Multi-Agent · Enterprise</text>
</svg>