<svg xmlns="http://www.w3.org/2000/svg" viewBox="0 0 1200 400" width="1200" height="400">
  <defs>
    <linearGradient id="g1" x1="0%" y1="0%" x2="100%" y2="100%">
      <stop offset="0%" stop-color="#B8860B"/>
      <stop offset="100%" stop-color="#7A5010"/>
    </linearGradient>
    <linearGradient id="tg" x1="0%" y1="0%" x2="100%" y2="0%">
      <stop offset="0%" stop-color="#B8860B"/>
      <stop offset="50%" stop-color="#996515"/>
      <stop offset="100%" stop-color="#7A5010"/>
    </linearGradient>
    <filter id="ng">
      <feGaussianBlur stdDeviation="2" result="b"/>
      <feMerge><feMergeNode in="b"/><feMergeNode in="SourceGraphic"/></feMerge>
    </filter>
  </defs>

  <rect width="1200" height="400" rx="40" fill="#FAFAFA" stroke="#E5E5E5" stroke-width="1"/>

  <!-- 蜂巢背景 -->
  <g stroke="#B8860B" stroke-width="0.6" fill="none" opacity="0.12">
    <polygon points="80,80 100,68 120,80 120,104 100,116 80,104"/>
    <polygon points="120,80 140,68 160,80 160,104 140,116 120,104"/>
    <polygon points="100,116 120,104 140,116 140,140 120,152 100,140"/>
    <polygon points="140,116 160,104 180,116 180,140 160,152 140,140"/>
    <polygon points="60,116 80,104 100,116 100,140 80,152 60,140"/>
    <polygon points="80,152 100,140 120,152 120,176 100,188 80,176"/>
    <polygon points="120,152 140,140 160,152 160,176 140,188 120,176"/>
    <polygon points="160,152 180,140 200,152 200,176 180,188 160,176"/>
    <polygon points="80,224 100,212 120,224 120,248 100,260 80,248"/>
    <polygon points="120,224 140,212 160,224 160,248 140,260 120,248"/>
    <polygon points="100,260 120,248 140,260 140,284 120,296 100,284"/>
    <polygon points="80,332 100,320 120,332 120,356 100,368 80,356"/>
    <polygon points="120,332 140,320 160,332 160,356 140,368 120,356"/>
  </g>

  <!-- ═══ 图标 ═══ -->
  <g transform="translate(15, 25) scale(0.7)">
    <polygon points="256,18 472,142 472,370 256,494 40,370 40,142"
             fill="none" stroke="#B8860B" stroke-width="2.5" opacity="0.25"/>

    <!-- 神经网络 -->
    <g stroke="#3B82F6" stroke-width="1.8" fill="none" opacity="0.35">
      <line x1="120" y1="160" x2="180" y2="130"/><line x1="180" y1="130" x2="256" y2="110"/>
      <line x1="256" y1="110" x2="332" y2="130"/><line x1="332" y1="130" x2="392" y2="160"/>
      <line x1="120" y1="160" x2="100" y2="240"/><line x1="392" y1="160" x2="412" y2="240"/>
      <line x1="100" y1="240" x2="120" y2="340"/><line x1="412" y1="240" x2="392" y2="340"/>
      <line x1="120" y1="340" x2="180" y2="400"/><line x1="180" y1="400" x2="256" y2="420"/>
      <line x1="256" y1="420" x2="332" y2="400"/><line x1="332" y1="400" x2="392" y2="340"/>
      <line x1="180" y1="200" x2="256" y2="170"/><line x1="332" y1="200" x2="256" y2="170"/>
      <line x1="180" y1="300" x2="256" y2="340"/><line x1="332" y1="300" x2="256" y2="340"/>
      <line x1="180" y1="130" x2="180" y2="200"/><line x1="332" y1="130" x2="332" y2="200"/>
      <line x1="180" y1="200" x2="180" y2="300"/><line x1="332" y1="200" x2="332" y2="300"/>
      <line x1="180" y1="300" x2="180" y2="400"/><line x1="332" y1="300" x2="332" y2="400"/>
      <line x1="100" y1="240" x2="180" y2="240"/><line x1="412" y1="240" x2="332" y2="240"/>
    </g>
    <g fill="#3B82F6" opacity="0.5" filter="url(#ng)">
      <circle cx="120" cy="160" r="4"/><circle cx="180" cy="130" r="3.5"/>
      <circle cx="256" cy="110" r="3.5"/><circle cx="332" cy="130" r="3.5"/>
      <circle cx="392" cy="160" r="4"/><circle cx="100" cy="240" r="4"/>
      <circle cx="412" cy="240" r="4"/><circle cx="120" cy="340" r="4"/>
      <circle cx="392" cy="340" r="4"/><circle cx="180" cy="400" r="3.5"/>
      <circle cx="256" cy="420" r="3.5"/><circle cx="332" cy="400" r="3.5"/>
    </g>

    <!-- 翅膀 -->
    <path d="M256,195 Q175,172 130,225 Q95,275 145,320 Q195,355 242,305 Q262,285 256,255 Z"
          fill="#B8860B" fill-opacity="0.06" stroke="#B8860B" stroke-width="1.8" opacity="0.55"/>
    <g stroke="#B8860B" stroke-width="0.9" fill="none" opacity="0.3">
      <polygon points="180,210 195,201 210,210 210,228 195,237 180,228"/>
      <polygon points="210,210 225,201 240,210 240,228 225,237 210,228"/>
      <polygon points="165,228 180,219 195,228 195,246 180,255 165,246"/>
      <polygon points="195,228 210,219 225,228 225,246 210,255 195,246"/>
      <polygon points="225,228 240,219 255,228 255,246 240,255 225,246"/>
      <polygon points="180,246 195,237 210,246 210,264 195,273 180,264"/>
      <polygon points="210,246 225,237 240,246 240,264 225,273 210,264"/>
    </g>
    <path d="M256,195 Q337,172 382,225 Q417,275 367,320 Q317,355 270,305 Q250,285 256,255 Z"
          fill="#B8860B" fill-opacity="0.06" stroke="#B8860B" stroke-width="1.8" opacity="0.55"/>
    <g stroke="#B8860B" stroke-width="0.9" fill="none" opacity="0.3">
      <polygon points="272,210 287,201 302,210 302,228 287,237 272,228"/>
      <polygon points="302,210 317,201 332,210 332,228 317,237 302,228"/>
      <polygon points="257,228 272,219 287,228 287,246 272,255 257,246"/>
      <polygon points="287,228 302,219 317,228 317,246 302,255 287,246"/>
      <polygon points="317,228 332,219 347,228 347,246 332,255 317,246"/>
      <polygon points="272,246 287,237 302,246 302,264 287,273 272,264"/>
      <polygon points="302,246 317,237 332,246 332,264 317,273 302,264"/>
    </g>

    <!-- 身体 -->
    <polygon points="256,185 270,193 270,210 256,218 242,210 242,193" fill="url(#g1)"/>
    <polygon points="256,218 274,229 274,252 256,263 238,252 238,229" fill="url(#g1)"/>
    <polygon points="256,263 280,277 280,310 256,324 232,310 232,277" fill="url(#g1)"/>
    <line x1="238" y1="288" x2="274" y2="288" stroke="#FAFAFA" stroke-width="3" opacity="0.5"/>
    <line x1="235" y1="302" x2="277" y2="302" stroke="#FAFAFA" stroke-width="3" opacity="0.5"/>
    <circle cx="256" cy="218" r="4" fill="#B8860B" filter="url(#ng)" opacity="0.8"/>
    <circle cx="256" cy="263" r="4" fill="#B8860B" filter="url(#ng)" opacity="0.8"/>

    <!-- 触角 -->
    <g stroke="#B8860B" stroke-width="2" fill="none" stroke-linecap="round">
      <path d="M250,188 Q234,158 218,140" opacity="0.8"/>
      <path d="M262,188 Q278,158 294,140" opacity="0.8"/>
    </g>
    <circle cx="218" cy="140" r="5" fill="#B8860B" filter="url(#ng)" opacity="0.9"/>
    <circle cx="294" cy="140" r="5" fill="#B8860B" filter="url(#ng)" opacity="0.9"/>
  </g>

  <!-- 文字 -->
  <text x="440" y="200" font-family="'SF Pro Display','Segoe UI','Helvetica Neue',Arial,sans-serif"
        font-size="110" font-weight="700" fill="url(#tg)" letter-spacing="3">CoApis</text>
  <line x1="440" y1="225" x2="820" y2="225" stroke="#B8860B" stroke-width="1.5" opacity="0.25"/>
  <text x="440" y="265" font-family="'SF Pro Display','Segoe UI','Helvetica Neue',Arial,sans-serif"
        font-size="24" fill="#6B7280" letter-spacing="8" font-weight="300">INTELLIGENT AGENT PLATFORM</text>
  <text x="440" y="305" font-family="'SF Mono','Fira Code',monospace"
        font-size="13" fill="#B8860B" opacity="0.4" letter-spacing="4">Co-evolution · Multi-Agent · Enterprise</text>
</svg>